
<svg xmlns="http://www.w3.org/2000/svg" viewBox="0 0 64 64" id="elearning"><g><path d="M48.08 11.323a.996.996 0 1 0 1.63-1.09.996.996 0 0 0-1.63 1.09zm3.99 0a.996.996 0 1 0 1.63-1.09.996.996 0 0 0-1.63 1.09zm4.22-1.09a1.004 1.004 0 0 0 1.42 1.42 1.004 1.004 0 0 0-1.42-1.42zm.71 3.71H29a1 1 0 0 0-1 1v19a1 1 0 0 0 1 1h28a1 1 0 0 0 1-1v-19a1 1 0 0 0-1-1zm-1 19H30v-17h26zm-27 7h14a1 1 0 0 0 0-2H29a1 1 0 0 0 0 2zm24 2H29a1 1 0 0 0 0 2h24a1 1 0 0 0 0-2z"></path><path d="M59 5.943H5a3.003 3.003 0 0 0-3 3v37a3.003 3.003 0 0 0 3 3h1.613a31.076 31.076 0 0 0-.063 8.141 1 1 0 0 0 .924.857c1.184.079 2.313.116 3.39.116 12.817 0 18.145-5.168 18.383-5.407a1 1 0 0 0 .263-.95 15.401 15.401 0 0 0-.98-2.757H59a3.003 3.003 0 0 0 3-3v-37a3.003 3.003 0 0 0-3-3ZM8.444 55.995c-.23-2.589-.57-10.687 3.63-14.07a4.023 4.023 0 0 0 6.776.25c1.814.87 6.853 3.738 8.557 9.418-1.55 1.204-7.383 4.974-18.963 4.402ZM19.125 23.75c-2.998-1.033-6.005 1.401-7.014 3.693a3.76 3.76 0 0 0-5.039 1.934c-.895-3.526 4.933-7.644 5.006-7.59a1.008 1.008 0 0 0 .31-.314c3.147-5.035 5.747-5.744 6.963-5.744a2.345 2.345 0 0 1 .685.09c2.422 1.97.084 6.322-.911 7.93Zm-8.867 9.49c-.69-.922-2.095-2.487-1.01-3.59a1.726 1.726 0 0 1 2.59.005 1.008 1.008 0 0 0 1.65-.393c.324-1.113 2.333-4.755 5.426-3.47 6.383 13.606-.621 13.462-8.656 7.448Zm7.282 5.804a4.972 4.972 0 0 1-.12 1.556 1.998 1.998 0 0 1-3.86-.415c-.039.032-.013-2.484-.02-2.566a15.204 15.204 0 0 0 4 1.425Zm42.46 6.9a1.001 1.001 0 0 1-1 1H27.407a19.318 19.318 0 0 0-7.895-6.673 10.84 10.84 0 0 0 .028-1.14c6.24-1.395 3.62-9.18 1.196-14.182 1.217-1.868 4.495-8.034.251-10.9-.196-.097-4.81-2.273-10.178 6.179-4.079 2.633-9.666 9.416-1.885 14.503a30.524 30.524 0 0 0 2.616 1.778v3.334a11.4 11.4 0 0 0-4.529 7.1H5a1.001 1.001 0 0 1-1-1v-37a1.001 1.001 0 0 1 1-1h54a1.001 1.001 0 0 1 1 1Z"></path><path d="M39.746 29.737a1.492 1.492 0 0 0 1.498.013l6.553-3.687a1.506 1.506 0 0 0 0-2.625l-6.553-3.686A1.506 1.506 0 0 0 39 21.064v7.373a1.491 1.491 0 0 0 .746 1.3ZM41 21.91l5.05 2.841-5.05 2.84Z"></path></g></svg>