<svg xmlns="http://www.w3.org/2000/svg" viewBox="0 0 512 512" id="online-learning"><g><path fill="#dcdcdc" d="M456,504H56A48,48,0,0,1,8,456a16,16,0,0,1,16-16H488a16,16,0,0,1,16,16A48,48,0,0,1,456,504Z"></path><path fill="#bbb" d="M456,480H56a48,48,0,0,1-45.47-32.62A16,16,0,0,0,8,456a48,48,0,0,0,48,48H456a48,48,0,0,0,48-48,16,16,0,0,0-2.53-8.62A48,48,0,0,1,456,480Z"></path><path d="M456,512H432a8,8,0,0,1,0-16h24a40,40,0,0,0,40-40,8,8,0,0,0-8-8H24a8,8,0,0,0-8,8,40,40,0,0,0,40,40H400a8,8,0,0,1,0,16H56A56.06,56.06,0,0,1,0,456a24,24,0,0,1,24-24H488a24,24,0,0,1,24,24A56.06,56.06,0,0,1,456,512Z"></path><path fill="#596060" d="M208,440h96a0,0,0,0,1,0,0v16a16,16,0,0,1-16,16H224a16,16,0,0,1-16-16V440A0,0,0,0,1,208,440Z"></path><path d="M288,480H224a24,24,0,0,1-24-24V440a8,8,0,0,1,8-8h96a8,8,0,0,1,8,8v16A24,24,0,0,1,288,480Zm-72-32v8a8,8,0,0,0,8,8h64a8,8,0,0,0,8-8v-8Z"></path><path fill="#f6f6f6" d="M64,88H448a32,32,0,0,1,32,32V440a0,0,0,0,1,0,0H32a0,0,0,0,1,0,0V120A32,32,0,0,1,64,88Z"></path><rect width="448" height="24" x="32" y="416" fill="#dcdcdc"></rect><path d="M480,448H32a8,8,0,0,1,0-16H472V120a24,24,0,0,0-24-24H64a24,24,0,0,0-24,24V408a8,8,0,0,1-16,0V120A40,40,0,0,1,64,80H448a40,40,0,0,1,40,40V440A8,8,0,0,1,480,448Z"></path><rect width="384" height="288" x="64" y="120" fill="#a8edfd"></rect><rect width="384" height="24" x="64" y="384" fill="#8bd4de"></rect><path d="M448,416H64a8,8,0,0,1-8-8V120a8,8,0,0,1,8-8H448a8,8,0,0,1,8,8V408A8,8,0,0,1,448,416ZM72,400H440V128H72Z"></path><path d="M256,416a8,8,0,0,1-8-8V128a8,8,0,0,1,16,0V408A8,8,0,0,1,256,416Z"></path><polygon fill="#4c5657" points="360 160 256 200 152 160 176 72 336 72 360 160"></polygon><polygon fill="#3f494b" points="256 168 159.9 131.04 152 160 256 200 360 160 352.1 131.04 256 168"></polygon><path d="M253.13,207.47l-104-40a8,8,0,0,1-4.85-9.57l24-88A8,8,0,0,1,176,64H336a8,8,0,0,1,7.72,5.9l24,88a8,8,0,0,1-4.85,9.57l-104,40A8,8,0,0,1,253.13,207.47Zm-91.51-52.34L256,191.43l94.38-36.3L329.89,80H182.11Z"></path><polygon fill="#596060" points="416 72 256 136 96 72 256 8 416 72"></polygon><polygon fill="#4c5657" points="256 112 126 60 96 72 256 136 416 72 386 60 256 112"></polygon><path d="M253 143.43l-160-64a8 8 0 010-14.86l160-64a8 8 0 015.94 0l160 64a8 8 0 010 14.86l-160 64A8 8 0 01253 143.43zM117.54 72L256 127.38 394.46 72 256 16.62zM208 224H112a8 8 0 010-16h96a8 8 0 010 16zM208 272H112a8 8 0 010-16h96a8 8 0 010 16zM208 320H112a8 8 0 010-16h96a8 8 0 010 16zM208 368H112a8 8 0 010-16h96a8 8 0 010 16zM400 224H304a8 8 0 010-16h96a8 8 0 010 16zM400 272H304a8 8 0 010-16h96a8 8 0 010 16zM400 320H304a8 8 0 010-16h96a8 8 0 010 16zM400 368H304a8 8 0 010-16h96a8 8 0 010 16z"></path></g></svg>